<svg xmlns="http://www.w3.org/2000/svg" viewBox="0 0 64 64" role="img" aria-labelledby="title desc">
  <title id="title">Cold Minimal Blue Icon</title>
  <desc id="desc">A minimal cold-style icon with a dark blue background and a geometric crystal mark in white and icy blue.</desc>
  <defs>
    <linearGradient id="bg" x1="10" y1="8" x2="54" y2="58" gradientUnits="userSpaceOnUse">
      <stop offset="0" stop-color="#07111d"/>
      <stop offset="0.55" stop-color="#10263d"/>
      <stop offset="1" stop-color="#193b61"/>
    </linearGradient>
    <radialGradient id="glow" cx="20" cy="14" r="30" gradientUnits="userSpaceOnUse">
      <stop offset="0" stop-color="#e8f4ff" stop-opacity="0.22"/>
      <stop offset="1" stop-color="#e8f4ff" stop-opacity="0"/>
    </radialGradient>
    <linearGradient id="outline" x1="22" y1="16" x2="42" y2="48" gradientUnits="userSpaceOnUse">
      <stop offset="0" stop-color="#dfefff"/>
      <stop offset="0.48" stop-color="#8fbaff"/>
      <stop offset="1" stop-color="#5d87d3"/>
    </linearGradient>
    <linearGradient id="facet" x1="24" y1="18" x2="40" y2="46" gradientUnits="userSpaceOnUse">
      <stop offset="0" stop-color="#f8fbff" stop-opacity="0.95"/>
      <stop offset="0.55" stop-color="#b9d7ff" stop-opacity="0.38"/>
      <stop offset="1" stop-color="#7ca8ea" stop-opacity="0.2"/>
    </linearGradient>
  </defs>
  <rect x="4" y="4" width="56" height="56" rx="16" fill="url(#bg)"/>
  <rect x="4.5" y="4.5" width="55" height="55" rx="15.5" fill="none" stroke="#7da6d8" stroke-opacity="0.34"/>
  <rect x="4" y="4" width="56" height="56" rx="16" fill="url(#glow)"/>
  <path d="M32 15 44.5 24.5 40 42 32 49 24 42 19.5 24.5Z" fill="url(#facet)"/>
  <path d="M32 15 44.5 24.5 40 42 32 49 24 42 19.5 24.5Z" fill="none" stroke="url(#outline)" stroke-width="2.4" stroke-linejoin="round"/>
  <path d="M32 15v34" stroke="#f9fcff" stroke-width="2.2" stroke-linecap="round" stroke-opacity="0.92"/>
  <path d="M19.5 24.5H44.5" stroke="#9fc4ff" stroke-width="2" stroke-linecap="round" stroke-opacity="0.7"/>
  <path d="M32 15 24 42" stroke="#9cc5ff" stroke-width="1.6" stroke-linecap="round" stroke-opacity="0.52"/>
  <path d="M32 15 40 42" stroke="#dfefff" stroke-width="1.6" stroke-linecap="round" stroke-opacity="0.52"/>
  <path d="M24 42H40" stroke="#86b2f7" stroke-width="1.8" stroke-linecap="round" stroke-opacity="0.42"/>
</svg>
